<svg width="139" height="48" viewBox="0 0 139 48" fill="none" xmlns="http://www.w3.org/2000/svg">
<g clip-path="url(#clip0_25_944)">
<path d="M35.3909 26.2928H11.6315V31.5325H35.3909V26.2928Z" fill="white"/>
<path d="M46.8113 7.62355C46.7638 7.14149 46.711 6.65943 46.6529 6.18261C46.3784 3.79328 44.5093 1.89648 42.1069 1.56114C41.6265 1.49302 41.1408 1.43015 40.6603 1.37251C35.127 0.670382 29.4881 0.308838 23.7594 0.308838C18.0308 0.308838 12.3918 0.670382 6.85855 1.37251C6.3728 1.43539 5.89234 1.49826 5.41186 1.56114C3.00953 1.89125 1.14045 3.78805 0.865902 6.18261C0.813099 6.65943 0.760301 7.14149 0.707502 7.62355C0.237594 12.1088 0 16.6621 0 21.2679C0 26.5863 0.322072 31.8365 0.945098 36.9872C0.9715 37.202 0.997893 37.4168 1.02429 37.637C1.34637 40.2621 3.60087 42.2269 6.2672 42.2269H16.2989C17.413 42.2269 18.4109 42.9186 18.7805 43.9613C19.2029 45.1507 20.0424 46.141 21.1248 46.7646C21.9009 47.21 22.8037 47.4668 23.7647 47.4668C24.7256 47.4668 25.6285 47.21 26.4047 46.7646C27.487 46.141 28.3265 45.1507 28.7488 43.9613C29.1185 42.9186 30.1164 42.2269 31.2304 42.2269H41.2621C43.9285 42.2269 46.183 40.2568 46.5051 37.637C46.5315 37.4221 46.5579 37.2072 46.5843 36.9872C47.2073 31.8365 47.5294 26.5863 47.5294 21.2679C47.5294 16.6621 47.2918 12.1088 46.8219 7.62355H46.8113ZM29.0393 36.9872C28.0783 36.9872 27.1755 37.2439 26.3993 37.6893C24.8207 38.5958 23.7594 40.2882 23.7594 42.2269C23.7594 40.2882 22.6982 38.5958 21.1194 37.6893C20.3433 37.2439 19.4405 36.9872 18.4795 36.9872H8.61673C7.25982 36.9872 6.12993 35.9707 5.98737 34.6345C5.51746 30.2436 5.27987 25.7846 5.27987 21.2679C5.27987 17.0761 5.48579 12.9367 5.89234 8.85489C6.01377 7.63403 6.95359 6.63847 8.17851 6.49176C13.2842 5.86823 18.4848 5.5486 23.7594 5.5486C29.034 5.5486 34.2347 5.86823 39.3403 6.49176C40.5652 6.63847 41.5103 7.63403 41.6265 8.85489C42.0278 12.9367 42.239 17.0761 42.239 21.2679C42.239 25.7846 42.0014 30.2384 41.5314 34.6345C41.3889 35.9707 40.259 36.9872 38.9021 36.9872H29.0393Z" fill="white"/>
<path d="M65.137 38.6442C64.6369 38.6442 64.1887 38.5604 63.7991 38.3992C63.4094 38.2381 63.0847 37.9996 62.8184 37.6903C62.5521 37.3809 62.3508 37.0135 62.2144 36.5752C62.078 36.137 62.0066 35.6535 62.0066 35.1122C62.0066 34.5708 62.078 34.0874 62.2144 33.662C62.3508 33.2301 62.5521 32.8692 62.8184 32.5598C63.0847 32.2569 63.4094 32.0249 63.7991 31.8573C64.1887 31.6962 64.6304 31.6124 65.137 31.6124C65.8189 31.6124 66.3839 31.7607 66.8256 32.0636C67.2737 32.3665 67.5919 32.779 67.7932 33.3139L66.4294 33.9198C66.3514 33.6362 66.2085 33.4042 65.9943 33.2172C65.7799 33.0304 65.4941 32.9401 65.1304 32.9401C64.6628 32.9401 64.3187 33.0883 64.0848 33.3784C63.8575 33.6685 63.7406 34.0487 63.7406 34.5256V35.7502C63.7406 36.2208 63.8575 36.601 64.0848 36.8911C64.3121 37.1811 64.6628 37.3229 65.1304 37.3229C65.5267 37.3229 65.8319 37.2198 66.0527 37.0199C66.267 36.8202 66.4359 36.5688 66.5593 36.2658L67.8322 36.8717C67.6049 37.4647 67.2672 37.9095 66.8061 38.2059C66.345 38.5024 65.7929 38.6506 65.137 38.6506V38.6442Z" fill="white"/>
<path d="M73.028 38.6442C72.5409 38.6442 72.1122 38.5604 71.7225 38.3992C71.3394 38.2381 71.0081 37.9996 70.7353 37.6903C70.4626 37.3809 70.2547 37.0135 70.1054 36.5752C69.956 36.1434 69.8845 35.6535 69.8845 35.1122C69.8845 34.5708 69.956 34.0874 70.1054 33.662C70.2547 33.2301 70.4626 32.8692 70.7353 32.5598C71.0081 32.2569 71.3328 32.0249 71.7225 31.8573C72.1057 31.6962 72.5409 31.6124 73.028 31.6124C73.515 31.6124 73.9502 31.6962 74.3398 31.8573C74.7295 32.0184 75.0607 32.2569 75.3335 32.5598C75.6063 32.8628 75.8141 33.2301 75.9635 33.662C76.1129 34.0938 76.1843 34.5773 76.1843 35.1122C76.1843 35.6471 76.1129 36.137 75.9635 36.5752C75.8141 37.0135 75.6063 37.3809 75.3335 37.6903C75.0607 37.9996 74.7295 38.2316 74.3398 38.3992C73.9502 38.5604 73.515 38.6442 73.028 38.6442ZM73.028 37.3165C73.4695 37.3165 73.8138 37.1811 74.0671 36.9169C74.3204 36.6526 74.4437 36.2594 74.4437 35.7438V34.4935C74.4437 33.9842 74.3204 33.6039 74.0671 33.3333C73.8138 33.069 73.4695 32.9337 73.028 32.9337C72.5863 32.9337 72.2551 33.069 72.0018 33.3333C71.755 33.5975 71.6251 33.9842 71.6251 34.4935V35.7438C71.6251 36.2594 71.7485 36.6461 72.0018 36.9169C72.2551 37.1811 72.5928 37.3165 73.028 37.3165Z" fill="white"/>
<path d="M79.2758 38.4895V31.954H79.7304V32.9594H79.7694C79.8278 32.8047 79.9122 32.6565 80.0227 32.5212C80.133 32.3858 80.263 32.2633 80.4188 32.1538C80.5747 32.0442 80.7566 31.9604 80.9708 31.896C81.1852 31.8315 81.432 31.7993 81.7177 31.7993C82.2374 31.7993 82.6725 31.9153 83.0297 32.1538C83.3869 32.3922 83.6336 32.7468 83.7831 33.2173H83.8221C83.9454 32.8048 84.1792 32.4696 84.5299 32.1989C84.8807 31.9346 85.3545 31.7993 85.9521 31.7993C86.6793 31.7993 87.2319 32.0119 87.6082 32.4374C87.9913 32.8627 88.1803 33.4815 88.1803 34.2936V38.4895H87.7251V34.3581C87.7251 33.6233 87.5692 33.0754 87.2573 32.721C86.9462 32.3729 86.4784 32.1924 85.8546 32.1924C85.6012 32.1924 85.3681 32.2247 85.1342 32.2956C84.9002 32.3665 84.7053 32.4695 84.5299 32.605C84.3546 32.7403 84.2182 32.9143 84.1143 33.127C84.0104 33.3397 83.9584 33.5782 83.9584 33.8553V38.483H83.5038V34.3517C83.5038 33.6039 83.3414 33.0562 83.0231 32.7145C82.705 32.373 82.2438 32.1924 81.6333 32.1924C81.3801 32.1924 81.1462 32.2247 80.9125 32.2956C80.6786 32.3665 80.4773 32.4695 80.302 32.605C80.1266 32.7403 79.9837 32.9143 79.8798 33.1206C79.7759 33.3268 79.7239 33.5653 79.7239 33.8424V38.4895H79.2693H79.2758Z" fill="white"/>
<path d="M91.9527 38.4895V31.954H92.4078V32.9594H92.4468C92.5053 32.8047 92.5892 32.6565 92.7003 32.5212C92.8104 32.3858 92.9401 32.2633 93.0961 32.1538C93.252 32.0442 93.4342 31.9604 93.6478 31.896C93.8623 31.8315 94.1098 31.7993 94.3954 31.7993C94.9149 31.7993 95.3497 31.9153 95.7074 32.1538C96.0642 32.3922 96.3109 32.7468 96.46 33.2173H96.499C96.6228 32.8048 96.8567 32.4696 97.2076 32.1989C97.5576 31.9346 98.0323 31.7993 98.6298 31.7993C99.357 31.7993 99.9088 32.0119 100.286 32.4374C100.669 32.8627 100.857 33.4815 100.857 34.2936V38.4895H100.403V34.3581C100.403 33.6233 100.247 33.0754 99.935 32.721C99.6231 32.3729 99.1553 32.1924 98.5323 32.1924C98.2789 32.1924 98.045 32.2247 97.8111 32.2956C97.5771 32.3665 97.3822 32.4695 97.2076 32.605C97.0321 32.7403 96.8957 32.9143 96.7914 33.127C96.688 33.3397 96.6355 33.5782 96.6355 33.8553V38.483H96.1812V34.3517C96.1812 33.6039 96.0185 33.0562 95.7006 32.7145C95.3819 32.373 94.9209 32.1924 94.3106 32.1924C94.0572 32.1924 93.8233 32.2247 93.5893 32.2956C93.3563 32.3665 93.1546 32.4695 92.9791 32.605C92.8037 32.7403 92.6613 32.9143 92.557 33.1206C92.4536 33.3268 92.4011 33.5653 92.4011 33.8424V38.4895H91.9468H91.9527Z" fill="white"/>
<path d="M108.826 37.4905H108.774C108.716 37.6387 108.631 37.7806 108.521 37.9224C108.411 38.0642 108.281 38.1866 108.118 38.2962C107.956 38.4057 107.767 38.4895 107.54 38.554C107.313 38.6184 107.053 38.6507 106.761 38.6507C106.033 38.6507 105.475 38.438 105.086 38.0126C104.696 37.5872 104.501 36.9684 104.501 36.1564V31.9605H104.955V36.079C104.955 36.8331 105.118 37.3874 105.449 37.729C105.774 38.0771 106.248 38.251 106.858 38.251C107.111 38.251 107.352 38.2189 107.592 38.148C107.833 38.0771 108.04 37.9804 108.222 37.845C108.404 37.7096 108.547 37.5421 108.657 37.3294C108.767 37.1167 108.82 36.8718 108.82 36.5882V31.9605H109.274V38.496H108.82V37.4905H108.826Z" fill="white"/>
<path d="M113.171 38.4895V31.954H113.626V32.9594H113.665C113.794 32.6436 114.021 32.3665 114.347 32.1409C114.672 31.9153 115.119 31.7993 115.691 31.7993C116.418 31.7993 116.97 32.0119 117.36 32.4374C117.743 32.8627 117.938 33.4815 117.938 34.2936V38.4895H117.484V34.3709C117.484 33.6168 117.321 33.0626 116.996 32.721C116.672 32.3794 116.204 32.1989 115.587 32.1989C115.334 32.1989 115.094 32.2311 114.853 32.302C114.613 32.3729 114.405 32.476 114.223 32.6114C114.041 32.7468 113.899 32.9207 113.788 33.127C113.677 33.3333 113.626 33.5717 113.626 33.8489V38.4959H113.171V38.4895Z" fill="white"/>
<path d="M121.945 29.9367C121.809 29.9367 121.705 29.9045 121.646 29.84C121.588 29.7756 121.556 29.6982 121.556 29.6015V29.4855C121.556 29.3889 121.582 29.3115 121.64 29.2471C121.699 29.1826 121.796 29.1504 121.933 29.1504C122.068 29.1504 122.173 29.1826 122.231 29.2471C122.29 29.3115 122.322 29.3889 122.322 29.4855V29.6015C122.322 29.6982 122.296 29.7756 122.238 29.84C122.179 29.9045 122.082 29.9367 121.945 29.9367ZM121.711 31.954H122.166V38.4896H121.711V31.954Z" fill="white"/>
<path d="M126.894 38.4896C126.524 38.4896 126.336 38.3091 126.336 37.9482V32.3537H125.141V31.9541H125.998C126.148 31.9541 126.245 31.9218 126.29 31.8638C126.336 31.8058 126.361 31.7027 126.361 31.5544V30.1042H126.79V31.9541H128.336V32.3537H126.79V38.0899H128.226V38.4896H126.887H126.894Z" fill="white"/>
<path d="M135.532 31.9605H135.987L132.772 40.6423C132.7 40.797 132.622 40.9065 132.525 40.971C132.427 41.0355 132.285 41.0676 132.097 41.0676H131.135V40.668H132.304L133.083 38.6249L130.609 31.9605H131.09L133.292 38.0062H133.331L135.532 31.9605Z" fill="white"/>
<path d="M61.6299 24.2197V3.02765H65.4747V14.7452H66.0267L71.0276 9.20218H76.0349L69.0467 16.466L76.2751 24.2197H71.3328L66.0267 18.2578H65.4747V24.2197H61.6299Z" fill="white"/>
<path d="M85.1206 24.6386C83.6141 24.6386 82.2633 24.3357 81.0618 23.7298C79.8603 23.1239 78.9186 22.2474 78.2236 21.0937C77.5352 19.94 77.1844 18.5607 77.1844 16.943V16.4595C77.1844 14.8482 77.5286 13.4626 78.2236 12.3088C78.912 11.1616 79.8603 10.2786 81.0618 9.67266C82.2633 9.06685 83.6141 8.76395 85.1206 8.76395C86.6276 8.76395 87.9786 9.06685 89.1804 9.67266C90.3814 10.2786 91.323 11.1551 92.018 12.3088C92.7063 13.4626 93.0571 14.8418 93.0571 16.4595V16.943C93.0571 18.5607 92.713 19.94 92.018 21.0937C91.323 22.241 90.3814 23.1239 89.1804 23.7298C87.9786 24.3357 86.6276 24.6386 85.1206 24.6386ZM85.1206 21.2484C86.3029 21.2484 87.2768 20.8681 88.0498 20.114C88.8227 19.3599 89.2058 18.2707 89.2058 16.8592V16.5563C89.2058 15.1447 88.8227 14.0555 88.0633 13.3014C87.3031 12.5473 86.3156 12.167 85.1206 12.167C83.9259 12.167 82.9646 12.5473 82.1918 13.3014C81.419 14.0555 81.0292 15.1447 81.0292 16.5563V16.8592C81.0292 18.2707 81.4124 19.3599 82.1918 20.114C82.9646 20.8681 83.9388 21.2484 85.1206 21.2484Z" fill="white"/>
<path d="M102.696 24.6387C101.494 24.6387 100.37 24.3422 99.3248 23.7427C98.2789 23.1498 97.4347 22.2733 96.805 21.126C96.1744 19.9723 95.8566 18.5801 95.8566 16.9495V16.466C95.8566 14.829 96.1685 13.4368 96.805 12.2895C97.4347 11.1358 98.2662 10.2657 99.3053 9.67277C100.344 9.07976 101.467 8.77685 102.689 8.77685C103.604 8.77685 104.371 8.88001 104.994 9.09264C105.618 9.30536 106.118 9.56961 106.508 9.89188C106.891 10.2142 107.189 10.5558 107.391 10.9231H107.943V3.02124H111.787V24.2133H108.008V22.3957H107.455C107.111 22.9629 106.579 23.4785 105.852 23.9426C105.131 24.4067 104.079 24.6387 102.696 24.6387ZM103.858 21.3065C105.04 21.3065 106.021 20.9262 106.819 20.1721C107.611 19.418 108.008 18.3094 108.008 16.8592V16.5563C108.008 15.1061 107.618 13.9976 106.832 13.2435C106.047 12.4894 105.059 12.1091 103.858 12.1091C102.657 12.1091 101.695 12.4894 100.896 13.2435C100.104 13.9976 99.7079 15.1061 99.7079 16.5563V16.8592C99.7079 18.3094 100.104 19.418 100.896 20.1721C101.689 20.9262 102.676 21.3065 103.858 21.3065Z" fill="white"/>
<path d="M116.055 24.2197V3.02765H119.899V24.2197H116.055Z" fill="white"/>
<path d="M128.868 24.6386C127.79 24.6386 126.823 24.4517 125.972 24.0779C125.121 23.7041 124.439 23.1626 123.946 22.4408C123.446 21.7254 123.199 20.8488 123.199 19.824C123.199 18.7992 123.446 17.9291 123.946 17.233C124.446 16.5369 125.134 16.0148 126.017 15.6604C126.9 15.3059 127.914 15.1319 129.051 15.1319H133.2V14.2811C133.2 13.572 132.98 12.992 132.531 12.5408C132.083 12.0897 131.369 11.8576 130.395 11.8576C129.421 11.8576 128.726 12.0768 128.258 12.5086C127.79 12.9405 127.485 13.5012 127.343 14.1908L123.802 13.0114C124.05 12.2444 124.439 11.5418 124.978 10.9101C125.517 10.2721 126.238 9.75646 127.141 9.36328C128.044 8.97019 129.148 8.77036 130.453 8.77036C132.447 8.77036 134.025 9.26661 135.181 10.2528C136.344 11.2389 136.922 12.6762 136.922 14.5517V20.1527C136.922 20.7586 137.207 21.0615 137.779 21.0615H139V24.2067H136.434C135.681 24.2067 135.064 24.0263 134.571 23.6589C134.083 23.298 133.837 22.8082 133.837 22.2088V22.1765H133.259C133.181 22.4215 132.993 22.7373 132.707 23.1304C132.421 23.5235 131.973 23.8717 131.363 24.1746C130.752 24.4775 129.921 24.6257 128.862 24.6257L128.868 24.6386ZM129.538 21.5513C130.616 21.5513 131.492 21.2548 132.175 20.6554C132.856 20.0625 133.194 19.2697 133.194 18.2771V17.9742H129.317C128.602 17.9742 128.044 18.1289 127.641 18.4318C127.232 18.7347 127.031 19.1602 127.031 19.7016C127.031 20.2429 127.245 20.6941 127.673 21.0357C128.102 21.3773 128.719 21.5513 129.538 21.5513Z" fill="white"/>
<path d="M76.3467 41.3565H61.9806V43.6446H76.3467V41.3565Z" fill="white"/>
</g>
<defs>
<clipPath id="clip0_25_944">
<rect width="139" height="48" fill="white"/>
</clipPath>
</defs>
</svg>
